Genre:Drama
Language:English  http://www.imdb.com/title/tt1273241/
Source:720p DTS x264-CHD


Format : Matroska
File size : 1.40 GiB
Duration : 1h 19mn
Overall bit rate : 2 536 Kbps


Video
Codec ID : V_MPEG4/ISO/AVC
Duration : 1h 19mn
Bit rate : 2 200 Kbps
Width : 1 280 pixels
Height : 546 pixels
Display aspect ratio : 2.35:1
Frame rate mode : Variable
Frame rate : 23.976 fps
Color space : YUV
Chroma subsampling : 4:2:0
Bit depth : 8 bits
Scan type : Progressive
Bits/(Pixel*Frame) : 0.131
Stream size : 1.16 GiB (83%)
Writing library : x264


Audio
ID : 2
Format : AC-3
Format/Info : Audio Coding 3
Mode extension : CM (complete main)
Codec ID : A_AC3
Duration : 1h 19mn
Bit rate mode : Constant
Bit rate : 384 Kbps
Channel(s) : 6 channels
Channel positions : Front: L C R, Side: L R, LFE
Sampling rate : 48.0 KHz
Bit depth : 16 bits
Video delay : -1mn 5s
Stream size : 217 MiB (15%)
Language : English



Plot:
Adam Buckley finds himself in the middle of a convenience store robbery during his last night as a pledge for a college fraternity

